<svg width="18" height="19" viewBox="0 0 18 19" fill="none" xmlns="http://www.w3.org/2000/svg">
<g clip-path="url(#clip0_1_58)">
<path d="M12.5819 5.38536C12.5819 5.6274 12.5819 5.80893 12.5217 5.99046C12.5217 5.92995 12.5217 5.80893 12.5819 5.74842C12.5217 6.05097 12.4615 6.29301 12.4013 6.59556C12.4013 6.65606 12.3411 6.71657 12.3411 6.77708C12.2809 6.83759 12.3411 6.83759 12.4013 6.65607C12.4013 6.71658 12.3411 6.71657 12.3411 6.77708C12.2809 6.8981 12.2207 7.01912 12.1605 7.14014C12.1003 7.26116 12.0401 7.38218 11.9197 7.5032C12.0401 7.32167 11.7993 7.68473 11.9197 7.5032C11.8595 7.56371 11.7993 7.62422 11.7391 7.68473C11.5585 7.86626 11.3779 8.10829 11.1371 8.22931C11.1973 8.1688 11.2575 8.10829 11.3177 8.10829C11.0167 8.35033 10.6555 8.53186 10.2943 8.71339C10.3545 8.65288 10.4147 8.65288 10.5351 8.59237C10.1739 8.7739 9.81272 8.83441 9.39131 8.89492C9.45151 8.89492 9.57191 8.89492 9.63211 8.83441C9.21071 8.89492 8.7893 8.89492 8.4281 8.83441C8.4883 8.83441 8.6087 8.83441 8.6689 8.89492C8.3679 8.83441 8.1271 8.7739 7.82609 8.71339C7.76589 8.71339 7.70569 8.65288 7.64549 8.65288C7.58529 8.59237 7.58529 8.65288 7.76589 8.71339C7.70569 8.71339 7.70569 8.65288 7.64549 8.65288C7.52509 8.59237 7.40469 8.53186 7.28429 8.47135C7.16389 8.41084 7.04348 8.35033 6.92308 8.22931C7.10368 8.35033 6.74248 8.10829 6.92308 8.22931C6.86288 8.1688 6.80268 8.10829 6.74248 8.04778C6.56188 7.86626 6.32108 7.68473 6.20067 7.44269C6.26088 7.5032 6.32108 7.56371 6.32108 7.62422C6.08027 7.32167 5.89967 6.95861 5.71907 6.59556C5.77927 6.65606 5.77927 6.71658 5.83947 6.83759C5.65887 6.47454 5.59867 6.11148 5.53847 5.68791C5.53847 5.74842 5.53847 5.86944 5.59867 5.92995C5.41807 5.56689 5.41807 5.14333 5.47827 4.78027C5.47827 4.84078 5.47827 4.9618 5.41807 5.02231C5.47827 4.71976 5.53847 4.47772 5.59867 4.17517C5.59867 4.11466 5.65887 4.05415 5.65887 3.99365C5.71907 3.93314 5.65887 3.93314 5.59867 4.11466C5.59867 4.05416 5.65887 4.05415 5.65887 3.99365C5.71907 3.87263 5.77927 3.75161 5.83947 3.63059C5.89967 3.50957 5.95987 3.38855 6.08027 3.26753C5.95987 3.44906 6.20067 3.086 6.08027 3.26753C6.14047 3.20702 6.20067 3.14651 6.26087 3.086C6.44148 2.90447 6.62208 2.66244 6.86288 2.54142C6.80268 2.60193 6.74248 2.66244 6.68228 2.66244C6.98328 2.4204 7.34449 2.23887 7.70569 2.05734C7.64549 2.11785 7.58529 2.11785 7.46489 2.17836C7.82609 1.99683 8.1873 1.93632 8.6087 1.87581C8.5485 1.87581 8.4281 1.87581 8.3679 1.93632C8.7893 1.87581 9.21071 1.87581 9.57191 1.93632C9.51171 1.93632 9.39131 1.93632 9.33111 1.87581C9.63211 1.93632 9.87292 1.99683 10.1739 2.05734C10.2341 2.05734 10.2943 2.11785 10.3545 2.11785C10.4147 2.17836 10.4147 2.11785 10.2341 2.05734C10.2943 2.05734 10.2943 2.11785 10.3545 2.11785C10.4749 2.17836 10.5953 2.23887 10.7157 2.29938C10.8361 2.35989 10.9565 2.4204 11.0769 2.54142C10.8963 2.4204 11.2575 2.66244 11.0769 2.54142C11.1371 2.60193 11.1973 2.66244 11.2575 2.72294C11.4381 2.90447 11.6789 3.086 11.7993 3.32804C11.7391 3.26753 11.6789 3.20702 11.6789 3.14651C11.9197 3.44906 12.1003 3.81212 12.2809 4.17517C12.2207 4.11466 12.2207 4.05415 12.1605 3.93314C12.3411 4.29619 12.4013 4.65925 12.4615 5.08282C12.4615 5.02231 12.4615 4.90129 12.4013 4.84078C12.5217 4.9618 12.5819 5.20384 12.5819 5.38536C12.5819 5.86944 13.0034 6.29301 13.485 6.29301C13.9666 6.29301 14.388 5.86944 14.388 5.38536C14.388 3.81212 13.7258 2.29938 12.5217 1.27072C11.9197 0.72613 11.1973 0.363072 10.4147 0.181544C9.63211 -0.0604945 8.7893 -0.0604945 7.94649 0.121034C6.44148 0.423582 5.11706 1.39173 4.33445 2.72294C3.55184 4.11466 3.43144 5.80893 3.97325 7.26116C4.27425 7.98728 4.69566 8.71339 5.29766 9.25798C5.89967 9.80256 6.56188 10.2261 7.34449 10.4682C8.8495 11.0128 10.5351 10.7707 11.8595 9.92358C13.4248 8.95543 14.388 7.20065 14.388 5.32486C14.388 4.84078 13.9666 4.41721 13.485 4.41721C13.0034 4.47772 12.5819 4.90129 12.5819 5.38536Z" fill="black"/>
<path d="M18 18.0924C18 16.5796 17.6388 15.0669 16.9164 13.7357C16.2542 12.465 15.2308 11.3758 14.0268 10.5287C11.6187 8.89492 8.3679 8.53186 5.65887 9.68154C4.33446 10.2261 3.07024 11.0733 2.16723 12.2229C1.20402 13.3726 0.541817 14.7038 0.240813 16.1561C0.120412 16.7612 0.0602112 17.4268 0.0602112 18.0924C0.0602112 18.5764 0.481616 19 0.963221 19H3.49165H9.03011H14.5686H17.1572C17.5786 19 18 18.637 18 18.0924C18 17.6083 17.5786 17.1847 17.097 17.1847H14.5686H9.03011H3.55185H0.903021C1.20402 17.4873 1.50503 17.7898 1.80603 18.0924C1.80603 17.7293 1.80603 17.3057 1.86623 16.9427C1.86623 17.0032 1.86623 17.1242 1.80603 17.1847C1.86623 16.6401 1.98663 16.1561 2.16723 15.672C2.22744 15.551 2.22744 15.43 2.28764 15.3089V15.2484C2.34784 15.0669 2.16723 15.4905 2.28764 15.3089C2.28764 15.2484 2.34784 15.1879 2.34784 15.1274C2.46824 14.8854 2.58864 14.6433 2.70904 14.4013C2.82944 14.1593 2.94984 13.9777 3.13045 13.7962C3.19065 13.7357 3.19065 13.7357 3.25085 13.6752C3.31105 13.6147 3.31105 13.6147 3.19065 13.7357C3.19065 13.6752 3.25085 13.6752 3.25085 13.6147C3.31105 13.4936 3.43145 13.4331 3.49165 13.3121C3.85285 12.9491 4.21406 12.586 4.63546 12.2229C4.57526 12.2835 4.51506 12.344 4.45486 12.344C4.99667 11.9204 5.65887 11.5573 6.32108 11.2548C6.26088 11.3153 6.20068 11.3153 6.08028 11.3758C6.74249 11.0733 7.46489 10.8917 8.1271 10.8312C8.0669 10.8312 7.9465 10.8312 7.8863 10.8917C8.60871 10.7707 9.33111 10.8312 10.0535 10.8917C9.99332 10.8917 9.87292 10.8917 9.81272 10.8312C10.3545 10.8917 10.8361 11.0128 11.3177 11.1943C11.4381 11.2548 11.5585 11.2548 11.6789 11.3153H11.7391C11.9197 11.3758 11.4983 11.1943 11.6789 11.3153C11.7391 11.3153 11.7993 11.3758 11.8595 11.3758C12.1003 11.4968 12.3411 11.6178 12.5819 11.7389C12.8228 11.8599 13.0034 11.9809 13.184 12.1624C13.2442 12.2229 13.2442 12.2229 13.3044 12.2835C13.3646 12.344 13.3646 12.344 13.2442 12.2229C13.3044 12.2229 13.3044 12.2835 13.3646 12.2835C13.485 12.344 13.5452 12.465 13.6656 12.5255C14.0268 12.8886 14.388 13.2516 14.7492 13.6752C14.689 13.6147 14.6288 13.5542 14.6288 13.4936C15.0502 14.0382 15.4114 14.7038 15.7124 15.3694C15.6522 15.3089 15.6522 15.2484 15.592 15.1274C15.893 15.793 16.0736 16.5191 16.1338 17.1847C16.1338 17.1242 16.1338 17.0032 16.0736 16.9427C16.1338 17.3057 16.1338 17.6688 16.1338 17.9714C16.1338 18.4554 16.5552 18.879 17.0368 18.879C17.5786 19 18 18.5764 18 18.0924Z" fill="black"/>
</g>
<defs>
<clipPath id="clip0_1_58">
<rect width="18" height="19" fill="white"/>
</clipPath>
</defs>
</svg>
