<svg width="19" height="19" viewBox="0 0 19 19" fill="none" xmlns="http://www.w3.org/2000/svg">
<g clip-path="url(#clip0_1_66)">
<path d="M0 16.2182V5.09116C0 4.35635 0.314917 3.62155 0.839779 3.09669C1.36464 2.57182 2.04696 2.25691 2.83425 2.25691H9.91989C10.1823 2.25691 10.4448 2.41436 10.6022 2.62431C10.7597 2.83425 10.7597 3.14917 10.6022 3.35912C10.4448 3.56906 10.2348 3.72652 9.91989 3.72652H2.78177C2.46685 3.77901 2.15193 3.93646 1.8895 4.19889C1.67956 4.40884 1.5221 4.72376 1.5221 5.09116V16.2182C1.5221 16.5331 1.67956 16.9006 1.8895 17.1105C2.09945 17.3204 2.46685 17.4779 2.78177 17.4779H13.9088C14.2238 17.4779 14.5912 17.3204 14.8011 17.1105C15.0111 16.9006 15.1685 16.5331 15.1685 16.2182V9.1326C15.1685 8.87017 15.326 8.60773 15.5359 8.45028C15.7459 8.29282 16.0608 8.29282 16.2707 8.45028C16.4807 8.60773 16.6381 8.81768 16.6381 9.1326V16.2182C16.6381 16.953 16.3232 17.6878 15.7983 18.2127C15.2735 18.7376 14.5912 19.0525 13.8039 19.0525H2.78177C2.04696 19.0525 1.31215 18.7376 0.787293 18.2127C0.314917 17.6878 0 16.953 0 16.2182ZM15.9558 6.0884C16.7431 6.0884 17.5304 5.77348 18.1077 5.19613C18.6851 4.61878 19 3.83149 19 3.0442C19 2.25691 18.6851 1.46961 18.1077 0.892265C17.5304 0.314917 16.7956 0 15.9558 0C15.116 0 14.3812 0.314917 13.8039 0.892265C13.2265 1.46961 12.9116 2.25691 12.9116 3.0442C12.9116 3.83149 13.2265 4.61878 13.8039 5.19613C14.3812 5.77348 15.1685 6.0884 15.9558 6.0884Z" fill="black"/>
</g>
<defs>
<clipPath id="clip0_1_66">
<rect width="19" height="19" fill="white"/>
</clipPath>
</defs>
</svg>
