<svg width="26" height="26" viewBox="0 0 26 26" fill="none" xmlns="http://www.w3.org/2000/svg">
<g clip-path="url(#clip0_1_83)">
<path d="M26 26V2.69323L17.9203 0L10.3068 3.36653V6.78486L12.8446 5.64542L20.5617 8.33865V26H26ZM22.4263 3.98805H23.5657V6.31873H22.4263V3.98805ZM22.4263 8.13147H23.5657V10.4622H22.4263V8.13147ZM22.4263 12.2749H23.5657V14.6056H22.4263V12.2749ZM22.4263 16.4183H23.5657V18.749H22.4263V16.4183ZM22.4263 20.6135H23.5657V22.9442H22.4263V20.6135Z" fill="black"/>
<path d="M0 26H12.2231V7.19919L0 12.7928V26ZM1.65737 14.0876L9.47809 11.6534V12.8446L1.65737 15.3307V14.0876ZM1.65737 17.247L9.47809 15.5896V16.7809L1.65737 18.49V17.247ZM1.65737 20.3546L9.47809 19.5259V20.7171L1.65737 21.5458V20.3546ZM1.65737 23.5139H9.47809V24.6534H1.65737V23.5139Z" fill="black"/>
<path d="M13.4143 26H19.3705V9.16733L13.4143 7.04382V26Z" fill="black"/>
</g>
<defs>
<clipPath id="clip0_1_83">
<rect width="26" height="26" fill="white"/>
</clipPath>
</defs>
</svg>
