<svg width="24" height="17" viewBox="0 0 24 17" fill="none" xmlns="http://www.w3.org/2000/svg">
<g clip-path="url(#clip0_1_51)">
<path d="M2.55319 0C1.1234 0 0 1.21429 0 2.63095V14.369C0 15.7857 1.1234 17 2.55319 17H21.4468C22.8766 17 24 15.7857 24 14.369V2.63095C24 1.21429 22.8766 0 21.4468 0H2.55319ZM2.70638 1.72024H21.3447L12.5106 9.96726C12.2043 10.2708 11.8468 10.2708 11.4894 9.96726L2.70638 1.72024ZM1.73617 3.1369L7.55745 8.60119L1.73617 14.369V3.1369ZM22.3149 3.1369V14.369L16.4936 8.60119L22.3149 3.1369ZM15.217 9.76488L20.783 15.2798H3.21702L8.78298 9.76488L10.3149 11.2321C11.234 12.0923 12.766 12.0923 13.6851 11.2321L15.217 9.76488Z" fill="black"/>
</g>
<defs>
<clipPath id="clip0_1_51">
<rect width="24" height="17" fill="white"/>
</clipPath>
</defs>
</svg>
